<svg width="95" height="22" viewBox="0 0 95 22" fill="none" xmlns="http://www.w3.org/2000/svg">
<g filter="url(#filter0_d_0_176)">
<path fill-rule="evenodd" clip-rule="evenodd" d="M9.73572 1C12.28 1 15.006 1.53629 16.9531 3.27285L14.5387 5.67339C13.2925 4.49866 11.4492 3.91129 9.73572 3.91129C5.97124 3.91129 3.42697 6.77151 3.42697 10.3723C3.42697 14.1008 5.81547 17.0887 9.76168 17.0887C11.1377 17.0887 12.7473 16.8589 14.0454 16.1438V11.879H10.2809V8.96774H17.3166V18.2124C14.8762 19.4892 12.306 20 9.73572 20C4.0241 20 0 16.1694 0 10.5766C0 4.88172 3.94621 1 9.73572 1ZM26.5531 6.97581C30.4993 6.97581 32.3945 9.91263 32.3945 13.6156V14.4839H22.8924C23.1001 16.246 24.4501 17.3952 26.2415 17.3952C27.6435 17.3952 28.7079 16.8078 29.5906 15.7352L31.8233 17.3952C30.4733 19.0296 28.6819 19.8468 26.5531 19.8468C22.7367 19.8468 19.777 17.2419 19.777 13.4113C19.777 9.60618 22.7367 6.97581 26.5531 6.97581ZM22.8924 12.1855H29.2791C29.2531 10.2702 27.929 9.27419 26.0857 9.27419C24.2424 9.27419 23.1261 10.4489 22.8924 12.1855ZM41.6309 6.97581C45.3435 6.97581 46.1743 9.81048 46.1743 11.7003V19.5403H43.0588V13.1815C43.0588 10.7298 42.254 9.73387 40.7742 9.73387C38.7751 9.73387 37.9184 11.164 37.9184 12.7984V19.5403H34.803V7.28226H37.7626V9.24866H37.8145C38.5674 7.63978 39.9953 6.97581 41.6309 6.97581ZM55.3588 6.97581C59.305 6.97581 61.2002 9.91263 61.2002 13.6156V14.4839H51.6982C51.9059 16.246 53.2559 17.3952 55.0473 17.3952C56.4492 17.3952 57.5136 16.8078 58.3964 15.7352L60.6291 17.3952C59.2791 19.0296 57.4877 19.8468 55.3588 19.8468C51.5424 19.8468 48.5827 17.2419 48.5827 13.4113C48.5827 9.60618 51.5424 6.97581 55.3588 6.97581ZM51.6982 12.1855H58.0848C58.0588 10.2702 56.7348 9.27419 54.8915 9.27419C53.0482 9.27419 51.9318 10.4489 51.6982 12.1855ZM67.8665 6.97581C69.8136 6.97581 71.4232 7.63978 72.3319 8.84005L70.255 10.6788C69.6319 9.83602 68.853 9.42742 67.8145 9.42742C66.802 9.42742 65.9972 9.93817 65.9972 10.7298C65.9972 11.7258 67.3991 11.9046 68.9569 12.2621C70.878 12.6962 72.7213 13.3858 72.7213 15.914C72.7213 18.4933 70.4107 19.8468 67.3213 19.8468C65.4001 19.8468 63.7645 19.3616 62.4923 17.957L64.5693 16.0417C65.6337 17.1909 66.4645 17.5484 67.529 17.5484C68.6713 17.5484 69.6059 16.9866 69.6059 16.1438C69.6059 14.9691 68.1001 14.7648 66.5164 14.4073C64.8289 14.0242 62.8818 13.4368 62.8818 10.9341C62.8818 7.94624 65.7376 6.97581 67.8665 6.97581ZM76.2202 1.28091C77.3625 1.28091 78.2452 2.07258 78.2452 3.11962C78.2452 4.21774 77.3366 4.95833 76.2202 4.95833C75.1038 4.95833 74.2471 4.11559 74.2471 3.11962C74.2471 2.12366 75.1038 1.28091 76.2202 1.28091ZM74.6885 7.28226H77.8039V19.5403H74.6885V7.28226ZM85.1451 6.97581C87.0923 6.97581 88.7019 7.63978 89.6106 8.84005L87.5336 10.6788C86.9105 9.83602 86.1317 9.42742 85.0932 9.42742C84.0807 9.42742 83.2759 9.93817 83.2759 10.7298C83.2759 11.7258 84.6778 11.9046 86.2355 12.2621C88.1567 12.6962 90 13.3858 90 15.914C90 18.4933 87.6894 19.8468 84.5999 19.8468C82.6787 19.8468 81.0431 19.3616 79.771 17.957L81.848 16.0417C82.9124 17.1909 83.7432 17.5484 84.8076 17.5484C85.9499 17.5484 86.8846 16.9866 86.8846 16.1438C86.8846 14.9691 85.3788 14.7648 83.7951 14.4073C82.1076 14.0242 80.1604 13.4368 80.1604 10.9341C80.1604 7.94624 83.0162 6.97581 85.1451 6.97581Z" fill="#111111"/>
<path d="M16.9531 3.27285L17.3057 3.62742L17.6822 3.25308L17.2859 2.89969L16.9531 3.27285ZM14.5387 5.67339L14.1957 6.03722L14.5479 6.36925L14.8912 6.02796L14.5387 5.67339ZM14.0454 16.1438L14.2866 16.5818L14.5454 16.4392V16.1438H14.0454ZM14.0454 11.879H14.5454V11.379H14.0454V11.879ZM10.2809 11.879H9.78092V12.379H10.2809V11.879ZM10.2809 8.96774V8.46774H9.78092V8.96774H10.2809ZM17.3166 8.96774H17.8166V8.46774H17.3166V8.96774ZM17.3166 18.2124L17.5484 18.6554L17.8166 18.5151V18.2124H17.3166ZM32.3945 14.4839V14.9839H32.8945V14.4839H32.3945ZM22.8924 14.4839V13.9839H22.33L22.3959 14.5424L22.8924 14.4839ZM29.5906 15.7352L29.8889 15.334L29.507 15.05L29.2045 15.4175L29.5906 15.7352ZM31.8233 17.3952L32.2088 17.7136L32.5439 17.3079L32.1216 16.9939L31.8233 17.3952ZM22.8924 12.1855L22.3969 12.1188L22.3206 12.6855H22.8924V12.1855ZM29.2791 12.1855V12.6855H29.7859L29.779 12.1787L29.2791 12.1855ZM46.1743 19.5403V20.0403H46.6743V19.5403H46.1743ZM43.0588 19.5403H42.5588V20.0403H43.0588V19.5403ZM37.9184 19.5403V20.0403H38.4184V19.5403H37.9184ZM34.803 19.5403H34.303V20.0403H34.803V19.5403ZM34.803 7.28226V6.78226H34.303V7.28226H34.803ZM37.7626 7.28226H38.2626V6.78226H37.7626V7.28226ZM37.7626 9.24866H37.2626V9.74866H37.7626V9.24866ZM37.8145 9.24866V9.74866H38.1326L38.2674 9.46058L37.8145 9.24866ZM61.2002 14.4839V14.9839H61.7002V14.4839H61.2002ZM51.6982 14.4839V13.9839H51.1358L51.2016 14.5424L51.6982 14.4839ZM58.3964 15.7352L58.6947 15.334L58.3127 15.05L58.0103 15.4175L58.3964 15.7352ZM60.6291 17.3952L61.0146 17.7136L61.3497 17.3079L60.9274 16.9939L60.6291 17.3952ZM51.6982 12.1855L51.2026 12.1188L51.1264 12.6855H51.6982V12.1855ZM58.0848 12.1855V12.6855H58.5916L58.5848 12.1787L58.0848 12.1855ZM72.3319 8.84005L72.6633 9.21443L73.0101 8.90747L72.7306 8.53826L72.3319 8.84005ZM70.255 10.6788L69.8529 10.976L70.1775 11.4151L70.5864 11.0531L70.255 10.6788ZM68.9569 12.2621L68.845 12.7494L68.8467 12.7498L68.9569 12.2621ZM62.4923 17.957L62.1534 17.5894L61.7891 17.9254L62.1218 18.2926L62.4923 17.957ZM64.5693 16.0417L64.9361 15.7019L64.5971 15.3359L64.2303 15.6741L64.5693 16.0417ZM66.5164 14.4073L66.4058 14.8949L66.4063 14.895L66.5164 14.4073ZM74.6885 7.28226V6.78226H74.1885V7.28226H74.6885ZM77.8039 7.28226H78.3039V6.78226H77.8039V7.28226ZM77.8039 19.5403V20.0403H78.3039V19.5403H77.8039ZM74.6885 19.5403H74.1885V20.0403H74.6885V19.5403ZM89.6106 8.84005L89.942 9.21443L90.2887 8.90747L90.0092 8.53826L89.6106 8.84005ZM87.5336 10.6788L87.1316 10.976L87.4562 11.4151L87.865 11.0531L87.5336 10.6788ZM86.2355 12.2621L86.1237 12.7494L86.1253 12.7498L86.2355 12.2621ZM79.771 17.957L79.432 17.5894L79.0678 17.9254L79.4004 18.2926L79.771 17.957ZM81.848 16.0417L82.2148 15.7019L81.8758 15.3359L81.509 15.6741L81.848 16.0417ZM83.7951 14.4073L83.6844 14.8949L83.685 14.895L83.7951 14.4073ZM9.73572 1.5C12.2279 1.5 14.8065 2.02835 16.6203 3.64601L17.2859 2.89969C15.2055 1.04423 12.3321 0.5 9.73572 0.5V1.5ZM16.6006 2.91828L14.1861 5.31881L14.8912 6.02796L17.3057 3.62742L16.6006 2.91828ZM14.8816 5.30956C13.5237 4.0295 11.548 3.41129 9.73572 3.41129V4.41129C11.3504 4.41129 13.0613 4.96781 14.1957 6.03722L14.8816 5.30956ZM9.73572 3.41129C5.67113 3.41129 2.92697 6.51996 2.92697 10.3723H3.92697C3.92697 7.02305 6.27135 4.41129 9.73572 4.41129V3.41129ZM2.92697 10.3723C2.92697 12.3416 3.55821 14.1453 4.74265 15.463C5.93244 16.7866 7.6537 17.5887 9.76168 17.5887V16.5887C7.92346 16.5887 6.47736 15.8969 5.48635 14.7944C4.48998 13.686 3.92697 12.1316 3.92697 10.3723H2.92697ZM9.76168 17.5887C11.1801 17.5887 12.8851 17.3538 14.2866 16.5818L13.8042 15.7059C12.6095 16.3639 11.0952 16.5887 9.76168 16.5887V17.5887ZM14.5454 16.1438V11.879H13.5454V16.1438H14.5454ZM14.0454 11.379H10.2809V12.379H14.0454V11.379ZM10.7809 11.879V8.96774H9.78092V11.879H10.7809ZM10.2809 9.46774H17.3166V8.46774H10.2809V9.46774ZM16.8166 8.96774V18.2124H17.8166V8.96774H16.8166ZM17.0848 17.7693C14.7267 19.0032 12.2383 19.5 9.73572 19.5V20.5C12.3736 20.5 15.0257 19.9753 17.5484 18.6554L17.0848 17.7693ZM9.73572 19.5C6.99324 19.5 4.68874 18.5819 3.07287 17.0255C1.45861 15.4705 0.5 13.2484 0.5 10.5766H-0.5C-0.5 13.4975 0.553441 15.9871 2.37913 17.7457C4.20322 19.5027 6.76657 20.5 9.73572 20.5V19.5ZM0.5 10.5766C0.5 7.84812 1.44298 5.5874 3.04742 4.00918C4.65253 2.4303 6.95491 1.5 9.73572 1.5V0.5C6.72702 0.5 4.16154 1.51056 2.34617 3.29627C0.530124 5.08263 -0.5 7.61022 -0.5 10.5766H0.5ZM26.5531 7.47581C28.3893 7.47581 29.7011 8.15232 30.5647 9.2213C31.4401 10.305 31.8945 11.8425 31.8945 13.6156H32.8945C32.8945 11.6858 32.4012 9.90337 31.3425 8.59288C30.272 7.26771 28.663 6.47581 26.5531 6.47581V7.47581ZM31.8945 13.6156V14.4839H32.8945V13.6156H31.8945ZM32.3945 13.9839H22.8924V14.9839H32.3945V13.9839ZM22.3959 14.5424C22.6347 16.5687 24.2093 17.8952 26.2415 17.8952V16.8952C24.691 16.8952 23.5655 15.9233 23.389 14.4253L22.3959 14.5424ZM26.2415 17.8952C27.8142 17.8952 29.0134 17.2234 29.9767 16.0529L29.2045 15.4175C28.4024 16.3922 27.4727 16.8952 26.2415 16.8952V17.8952ZM29.2923 16.1365L31.525 17.7964L32.1216 16.9939L29.8889 15.334L29.2923 16.1365ZM31.4378 17.0767C30.1859 18.5924 28.5377 19.3468 26.5531 19.3468V20.3468C28.8261 20.3468 30.7607 19.4667 32.2088 17.7136L31.4378 17.0767ZM26.5531 19.3468C22.9773 19.3468 20.277 16.9315 20.277 13.4113H19.277C19.277 17.5523 22.4961 20.3468 26.5531 20.3468V19.3468ZM20.277 13.4113C20.277 9.9153 22.9786 7.47581 26.5531 7.47581V6.47581C22.4947 6.47581 19.277 9.29707 19.277 13.4113H20.277ZM22.8924 12.6855H29.2791V11.6855H22.8924V12.6855ZM29.779 12.1787C29.7644 11.0994 29.3787 10.2283 28.691 9.63343C28.0124 9.04649 27.093 8.77419 26.0857 8.77419V9.77419C26.9217 9.77419 27.586 9.99988 28.0368 10.3898C28.4784 10.7717 28.7678 11.3562 28.7791 12.1923L29.779 12.1787ZM26.0857 8.77419C25.0523 8.77419 24.1842 9.10643 23.5415 9.71579C22.9033 10.3208 22.5256 11.1624 22.3969 12.1188L23.388 12.2522C23.4929 11.472 23.7902 10.8579 24.2295 10.4415C24.6642 10.0293 25.2759 9.77419 26.0857 9.77419V8.77419ZM41.6309 7.47581C43.3399 7.47581 44.3175 8.11753 44.8873 8.91908C45.4773 9.74897 45.6743 10.8144 45.6743 11.7003H46.6743C46.6743 10.6964 46.4559 9.39955 45.7023 8.33965C44.9287 7.25142 43.6346 6.47581 41.6309 6.47581V7.47581ZM45.6743 11.7003V19.5403H46.6743V11.7003H45.6743ZM46.1743 19.0403H43.0588V20.0403H46.1743V19.0403ZM43.5588 19.5403V13.1815H42.5588V19.5403H43.5588ZM43.5588 13.1815C43.5588 11.9187 43.3549 10.9331 42.882 10.2529C42.3831 9.53537 41.641 9.23387 40.7742 9.23387V10.2339C41.3872 10.2339 41.7874 10.4304 42.0609 10.8237C42.3603 11.2544 42.5588 11.9926 42.5588 13.1815H43.5588ZM40.7742 9.23387C39.6439 9.23387 38.7813 9.6445 38.2111 10.3348C37.653 11.0106 37.4184 11.901 37.4184 12.7984H38.4184C38.4184 12.0613 38.6122 11.4195 38.9821 10.9716C39.3401 10.5383 39.9054 10.2339 40.7742 10.2339V9.23387ZM37.4184 12.7984V19.5403H38.4184V12.7984H37.4184ZM37.9184 19.0403H34.803V20.0403H37.9184V19.0403ZM35.303 19.5403V7.28226H34.303V19.5403H35.303ZM34.803 7.78226H37.7626V6.78226H34.803V7.78226ZM37.2626 7.28226V9.24866H38.2626V7.28226H37.2626ZM37.7626 9.74866H37.8145V8.74866H37.7626V9.74866ZM38.2674 9.46058C38.9201 8.06582 40.1432 7.47581 41.6309 7.47581V6.47581C39.8475 6.47581 38.2148 7.21375 37.3617 9.03673L38.2674 9.46058ZM55.3588 7.47581C57.195 7.47581 58.5068 8.15232 59.3704 9.2213C60.2459 10.305 60.7002 11.8425 60.7002 13.6156H61.7002C61.7002 11.6858 61.207 9.90337 60.1483 8.59288C59.0777 7.26771 57.4688 6.47581 55.3588 6.47581V7.47581ZM60.7002 13.6156V14.4839H61.7002V13.6156H60.7002ZM61.2002 13.9839H51.6982V14.9839H61.2002V13.9839ZM51.2016 14.5424C51.4404 16.5687 53.0151 17.8952 55.0473 17.8952V16.8952C53.4967 16.8952 52.3713 15.9233 52.1947 14.4253L51.2016 14.5424ZM55.0473 17.8952C56.62 17.8952 57.8192 17.2234 58.7824 16.0529L58.0103 15.4175C57.2081 16.3922 56.2784 16.8952 55.0473 16.8952V17.8952ZM58.098 16.1365L60.3308 17.7964L60.9274 16.9939L58.6947 15.334L58.098 16.1365ZM60.2436 17.0767C58.9917 18.5924 57.3435 19.3468 55.3588 19.3468V20.3468C57.6319 20.3468 59.5665 19.4667 61.0146 17.7136L60.2436 17.0767ZM55.3588 19.3468C51.783 19.3468 49.0827 16.9315 49.0827 13.4113H48.0827C48.0827 17.5523 51.3018 20.3468 55.3588 20.3468V19.3468ZM49.0827 13.4113C49.0827 9.9153 51.7844 7.47581 55.3588 7.47581V6.47581C51.3004 6.47581 48.0827 9.29707 48.0827 13.4113H49.0827ZM51.6982 12.6855H58.0848V11.6855H51.6982V12.6855ZM58.5848 12.1787C58.5701 11.0994 58.1845 10.2283 57.4967 9.63343C56.8182 9.04649 55.8988 8.77419 54.8915 8.77419V9.77419C55.7275 9.77419 56.3918 9.99988 56.8426 10.3898C57.2842 10.7717 57.5735 11.3562 57.5849 12.1923L58.5848 12.1787ZM54.8915 8.77419C53.858 8.77419 52.9899 9.10643 52.3472 9.71579C51.7091 10.3208 51.3313 11.1624 51.2026 12.1188L52.1937 12.2522C52.2987 11.472 52.596 10.8579 53.0352 10.4415C53.4699 10.0293 54.0817 9.77419 54.8915 9.77419V8.77419ZM67.8665 7.47581C69.7103 7.47581 71.1472 8.10351 71.9333 9.14185L72.7306 8.53826C71.6993 7.17606 69.917 6.47581 67.8665 6.47581V7.47581ZM72.0005 8.46568L69.9235 10.3044L70.5864 11.0531L72.6633 9.21443L72.0005 8.46568ZM70.657 10.3815C69.9437 9.4167 69.0183 8.92742 67.8145 8.92742V9.92742C68.6878 9.92742 69.3201 10.2553 69.8529 10.976L70.657 10.3815ZM67.8145 8.92742C67.2307 8.92742 66.6709 9.07378 66.2418 9.3705C65.8031 9.67383 65.4972 10.1425 65.4972 10.7298H66.4972C66.4972 10.5255 66.5937 10.343 66.8106 10.193C67.037 10.0364 67.3859 9.92742 67.8145 9.92742V8.92742ZM65.4972 10.7298C65.4972 11.1127 65.6381 11.4334 65.8798 11.6853C66.1072 11.9224 66.4071 12.0819 66.7103 12.2008C67.3014 12.4327 68.107 12.58 68.845 12.7494L69.0687 11.7748C68.249 11.5866 67.5747 11.4658 67.0755 11.2699C66.8334 11.175 66.6855 11.0807 66.6014 10.993C66.5315 10.9201 66.4972 10.8449 66.4972 10.7298H65.4972ZM68.8467 12.7498C69.8021 12.9657 70.6468 13.2285 71.2535 13.6981C71.8249 14.1405 72.2213 14.7951 72.2213 15.914H73.2213C73.2213 14.5046 72.6962 13.5504 71.8656 12.9074C71.0703 12.2917 70.0328 11.9926 69.0671 11.7744L68.8467 12.7498ZM72.2213 15.914C72.2213 17.0305 71.7319 17.8629 70.8971 18.4352C70.0426 19.0211 68.8021 19.3468 67.3213 19.3468V20.3468C68.9299 20.3468 70.3895 19.9957 71.4626 19.26C72.5555 18.5107 73.2213 17.3767 73.2213 15.914H72.2213ZM67.3213 19.3468C65.4902 19.3468 64.0107 18.8886 62.8629 17.6213L62.1218 18.2926C63.5183 19.8346 65.31 20.3468 67.3213 20.3468V19.3468ZM62.8313 18.3246L64.9083 16.4092L64.2303 15.6741L62.1534 17.5894L62.8313 18.3246ZM64.2025 16.3814C64.7594 16.9827 65.281 17.4054 65.8285 17.6746C66.3831 17.9474 66.9351 18.0484 67.529 18.0484V17.0484C67.0584 17.0484 66.6627 16.9706 66.2698 16.7773C65.8696 16.5805 65.4437 16.2499 64.9361 15.7019L64.2025 16.3814ZM67.529 18.0484C68.1753 18.0484 68.7948 17.8905 69.2692 17.5808C69.7496 17.2671 70.1059 16.7743 70.1059 16.1438H69.1059C69.1059 16.3561 68.9949 16.5656 68.7224 16.7435C68.4439 16.9254 68.0249 17.0484 67.529 17.0484V18.0484ZM70.1059 16.1438C70.1059 15.7306 69.9689 15.3804 69.7225 15.0982C69.487 14.8287 69.1727 14.6449 68.8496 14.5085C68.2213 14.2431 67.3788 14.0894 66.6265 13.9195L66.4063 14.895C67.2377 15.0827 67.94 15.2099 68.4605 15.4297C68.7118 15.5358 68.8729 15.6458 68.9693 15.7561C69.0547 15.8538 69.1059 15.9696 69.1059 16.1438H70.1059ZM66.6271 13.9197C65.7796 13.7273 64.9655 13.5014 64.3604 13.0612C63.7936 12.6489 63.3818 12.0275 63.3818 10.9341H62.3818C62.3818 12.3435 62.9435 13.2671 63.7722 13.8699C64.5625 14.4448 65.5658 14.7042 66.4058 14.8949L66.6271 13.9197ZM63.3818 10.9341C63.3818 9.63246 63.9893 8.79379 64.8419 8.25782C65.7191 7.70635 66.8646 7.47581 67.8665 7.47581V6.47581C66.7395 6.47581 65.3926 6.73048 64.3097 7.4112C63.2022 8.10742 62.3818 9.24791 62.3818 10.9341H63.3818ZM76.2202 1.78091C77.1347 1.78091 77.7452 2.3947 77.7452 3.11962H78.7452C78.7452 1.75046 77.5903 0.780914 76.2202 0.780914V1.78091ZM77.7452 3.11962C77.7452 3.88306 77.1229 4.45833 76.2202 4.45833V5.45833C77.5503 5.45833 78.7452 4.55242 78.7452 3.11962H77.7452ZM76.2202 4.45833C75.3543 4.45833 74.7471 3.81441 74.7471 3.11962H73.7471C73.7471 4.41677 74.8534 5.45833 76.2202 5.45833V4.45833ZM74.7471 3.11962C74.7471 2.42483 75.3543 1.78091 76.2202 1.78091V0.780914C74.8534 0.780914 73.7471 1.82248 73.7471 3.11962H74.7471ZM74.6885 7.78226H77.8039V6.78226H74.6885V7.78226ZM77.3039 7.28226V19.5403H78.3039V7.28226H77.3039ZM77.8039 19.0403H74.6885V20.0403H77.8039V19.0403ZM75.1885 19.5403V7.28226H74.1885V19.5403H75.1885ZM85.1451 7.47581C86.9889 7.47581 88.4258 8.10351 89.2119 9.14185L90.0092 8.53826C88.978 7.17606 87.1956 6.47581 85.1451 6.47581V7.47581ZM89.2791 8.46568L87.2022 10.3044L87.865 11.0531L89.942 9.21443L89.2791 8.46568ZM87.9357 10.3815C87.2223 9.4167 86.2969 8.92742 85.0932 8.92742V9.92742C85.9664 9.92742 86.5987 10.2553 87.1316 10.976L87.9357 10.3815ZM85.0932 8.92742C84.5093 8.92742 83.9496 9.07378 83.5205 9.3705C83.0818 9.67383 82.7759 10.1425 82.7759 10.7298H83.7759C83.7759 10.5255 83.8723 10.343 84.0892 10.193C84.3156 10.0364 84.6646 9.92742 85.0932 9.92742V8.92742ZM82.7759 10.7298C82.7759 11.1127 82.9168 11.4334 83.1584 11.6853C83.3858 11.9224 83.6858 12.0819 83.989 12.2008C84.5801 12.4327 85.3856 12.58 86.1237 12.7494L86.3474 11.7748C85.5277 11.5866 84.8534 11.4658 84.3541 11.2699C84.1121 11.175 83.9642 11.0807 83.8801 10.993C83.8102 10.9201 83.7759 10.8449 83.7759 10.7298H82.7759ZM86.1253 12.7498C87.0807 12.9657 87.9255 13.2285 88.5321 13.6981C89.1035 14.1405 89.5 14.7951 89.5 15.914H90.5C90.5 14.5046 89.9748 13.5504 89.1443 12.9074C88.349 12.2917 87.3115 11.9926 86.3457 11.7744L86.1253 12.7498ZM89.5 15.914C89.5 17.0305 89.0106 17.8629 88.1758 18.4352C87.3212 19.0211 86.0807 19.3468 84.5999 19.3468V20.3468C86.2086 20.3468 87.6681 19.9957 88.7412 19.26C89.8341 18.5107 90.5 17.3767 90.5 15.914H89.5ZM84.5999 19.3468C82.7688 19.3468 81.2893 18.8886 80.1416 17.6213L79.4004 18.2926C80.7969 19.8346 82.5887 20.3468 84.5999 20.3468V19.3468ZM80.11 18.3246L82.1869 16.4092L81.509 15.6741L79.432 17.5894L80.11 18.3246ZM81.4811 16.3814C82.038 16.9827 82.5597 17.4054 83.1071 17.6746C83.6618 17.9474 84.2138 18.0484 84.8076 18.0484V17.0484C84.337 17.0484 83.9414 16.9706 83.5485 16.7773C83.1483 16.5805 82.7223 16.2499 82.2148 15.7019L81.4811 16.3814ZM84.8076 18.0484C85.454 18.0484 86.0735 17.8905 86.5478 17.5808C87.0283 17.2671 87.3846 16.7743 87.3846 16.1438H86.3846C86.3846 16.3561 86.2735 16.5656 86.0011 16.7435C85.7225 16.9254 85.3036 17.0484 84.8076 17.0484V18.0484ZM87.3846 16.1438C87.3846 15.7306 87.2476 15.3804 87.0011 15.0982C86.7657 14.8287 86.4513 14.6449 86.1283 14.5085C85.4999 14.2431 84.6575 14.0894 83.9052 13.9195L83.685 14.895C84.5164 15.0827 85.2187 15.2099 85.7392 15.4297C85.9905 15.5358 86.1516 15.6458 86.248 15.7561C86.3333 15.8538 86.3846 15.9696 86.3846 16.1438H87.3846ZM83.9058 13.9197C83.0582 13.7273 82.2442 13.5014 81.6391 13.0612C81.0723 12.6489 80.6604 12.0275 80.6604 10.9341H79.6604C79.6604 12.3435 80.2222 13.2671 81.0508 13.8699C81.8411 14.4448 82.8444 14.7042 83.6844 14.8949L83.9058 13.9197ZM80.6604 10.9341C80.6604 9.63246 81.268 8.79379 82.1206 8.25782C82.9978 7.70635 84.1432 7.47581 85.1451 7.47581V6.47581C84.0182 6.47581 82.6712 6.73048 81.5883 7.4112C80.4808 8.10742 79.6604 9.24791 79.6604 10.9341H80.6604Z" fill="black"/>
</g>
<defs>
<filter id="filter0_d_0_176" x="-4.5" y="0.5" width="99" height="28" filterUnits="userSpaceOnUse" color-interpolation-filters="sRGB">
<feFlood flood-opacity="0" result="BackgroundImageFix"/>
<feColorMatrix in="SourceAlpha" type="matrix" values="0 0 0 0 0 0 0 0 0 0 0 0 0 0 0 0 0 0 127 0" result="hardAlpha"/>
<feOffset dy="4"/>
<feGaussianBlur stdDeviation="2"/>
<feComposite in2="hardAlpha" operator="out"/>
<feColorMatrix type="matrix" values="0 0 0 0 0 0 0 0 0 0 0 0 0 0 0 0 0 0 0.25 0"/>
<feBlend mode="normal" in2="BackgroundImageFix" result="effect1_dropShadow_0_176"/>
<feBlend mode="normal" in="SourceGraphic" in2="effect1_dropShadow_0_176" result="shape"/>
</filter>
</defs>
</svg>
